<?xml version="1.0" standalone="no"?>
<!DOCTYPE svg PUBLIC "-//W3C//DTD SVG 20010904//EN"
 "http://www.w3.org/TR/2001/REC-SVG-20010904/DTD/svg10.dtd">
<svg version="1.0" xmlns="http://www.w3.org/2000/svg"
 width="1300.000000pt" height="1300.000000pt" viewBox="0 0 1300.000000 1300.000000"
 preserveAspectRatio="xMidYMid meet">

<g transform="translate(0.000000,1300.000000) scale(0.100000,-0.100000)"
fill="#000000" stroke="none">
<path d="M6384 10880 c-80 -11 -235 -63 -300 -101 -28 -16 -75 -47 -103 -70
-51 -41 -52 -42 -34 -63 l18 -21 -23 20 -24 20 -74 -78 c-178 -186 -246 -362
-248 -647 -2 -431 160 -845 449 -1151 53 -55 78 -92 94 -133 40 -109 21 -221
-49 -279 -59 -50 -93 -58 -283 -68 -263 -13 -364 -39 -499 -128 -133 -88 -240
-213 -314 -366 -64 -134 -85 -218 -91 -372 l-6 -133 1602 0 1601 0 0 98 c0
111 -11 187 -42 282 -76 236 -265 458 -466 547 -106 47 -195 63 -392 72 -150
7 -193 12 -230 28 -91 40 -137 125 -127 234 7 81 34 134 116 223 120 132 190
234 262 381 110 227 161 408 180 645 27 345 -50 572 -270 790 -127 127 -261
208 -413 250 -84 23 -244 33 -334 20z m-348 -322 l29 -33 -32 29 c-18 17 -33
31 -33 33 0 8 8 1 36 -29z m974 28 c0 -2 -8 -10 -17 -17 -16 -13 -17 -12 -4 4
13 16 21 21 21 13z m-80 -80 c0 -2 -8 -10 -17 -17 -16 -13 -17 -12 -4 4 13 16
21 21 21 13z m-810 -31 c13 -14 21 -25 18 -25 -2 0 -15 11 -28 25 -13 14 -21
25 -18 25 2 0 15 -11 28 -25z m730 -49 c0 -2 -8 -10 -17 -17 -16 -13 -17 -12
-4 4 13 16 21 21 21 13z m-650 -31 c13 -14 21 -25 18 -25 -2 0 -15 11 -28 25
-13 14 -21 25 -18 25 2 0 15 -11 28 -25z m570 -49 c0 -2 -8 -10 -17 -17 -16
-13 -17 -12 -4 4 13 16 21 21 21 13z m-490 -31 c13 -14 21 -25 18 -25 -2 0
-15 11 -28 25 -13 14 -21 25 -18 25 2 0 15 -11 28 -25z m410 -49 c0 -2 -8 -10
-17 -17 -16 -13 -17 -12 -4 4 13 16 21 21 21 13z m-335 -26 c10 -11 16 -20 13
-20 -3 0 -13 9 -23 20 -10 11 -16 20 -13 20 3 0 13 -9 23 -20z m255 -54 c0 -2
-8 -10 -17 -17 -16 -13 -17 -12 -4 4 13 16 21 21 21 13z m-170 -31 c13 -14 21
-25 18 -25 -2 0 -15 11 -28 25 -13 14 -21 25 -18 25 2 0 15 -11 28 -25z m77
-62 c-4 -3 3 -18 15 -32 l23 -26 -27 24 c-24 21 -29 41 -11 41 4 0 3 -3 0 -7z
m-147 -147 c0 -2 -8 -10 -17 -17 -16 -13 -17 -12 -4 4 13 16 21 21 21 13z
m306 -28 l29 -33 -32 29 c-31 28 -38 36 -30 36 2 0 16 -15 33 -32z m-386 -52
c0 -2 -8 -10 -17 -17 -16 -13 -17 -12 -4 4 13 16 21 21 21 13z m470 -31 c13
-14 21 -25 18 -25 -2 0 -15 11 -28 25 -13 14 -21 25 -18 25 2 0 15 -11 28 -25z
m-550 -49 c0 -2 -8 -10 -17 -17 -16 -13 -17 -12 -4 4 13 16 21 21 21 13z m630
-31 c13 -14 21 -25 18 -25 -2 0 -15 11 -28 25 -13 14 -21 25 -18 25 2 0 15
-11 28 -25z m-710 -49 c0 -2 -8 -10 -17 -17 -16 -13 -17 -12 -4 4 13 16 21 21
21 13z m790 -31 c13 -14 21 -25 18 -25 -2 0 -15 11 -28 25 -13 14 -21 25 -18
25 2 0 15 -11 28 -25z m-870 -49 c0 -2 -8 -10 -17 -17 -16 -13 -17 -12 -4 4
13 16 21 21 21 13z m950 -31 c13 -14 21 -25 18 -25 -2 0 -15 11 -28 25 -13 14
-21 25 -18 25 2 0 15 -11 28 -25z m-1030 -49 c0 -2 -8 -10 -17 -17 -16 -13
-17 -12 -4 4 13 16 21 21 21 13z m1110 -31 c13 -14 21 -25 18 -25 -2 0 -15 11
-28 25 -13 14 -21 25 -18 25 2 0 15 -11 28 -25z m-1190 -49 c0 -2 -8 -10 -17
-17 -16 -13 -17 -12 -4 4 13 16 21 21 21 13z m1266 -28 l29 -33 -32 29 c-31
28 -38 36 -30 36 2 0 16 -15 33 -32z m-1346 -51 c0 -2 -10 -12 -22 -23 l-23
-19 19 23 c18 21 26 27 26 19z m1425 -27 c10 -11 16 -20 13 -20 -3 0 -13 9
-23 20 -10 11 -16 20 -13 20 3 0 13 -9 23 -20z m-1744 -1827 c13 -16 12 -17
-3 -4 -10 7 -18 15 -18 17 0 8 8 3 21 -13z m80 -80 c13 -16 12 -17 -3 -4 -10
7 -18 15 -18 17 0 8 8 3 21 -13z m84 -83 c10 -11 16 -20 13 -20 -3 0 -13 9
-23 20 -10 11 -16 20 -13 20 3 0 13 -9 23 -20z"/>
<path d="M5229 9966 c-116 -66 -183 -112 -314 -217 -928 -744 -1209 -2022
-681 -3099 114 -233 336 -546 775 -1094 332 -413 341 -423 826 -1001 168 -200
443 -530 583 -700 41 -49 77 -91 81 -93 4 -1 48 48 98 110 49 62 188 230 307
373 1007 1203 1198 1437 1477 1810 298 398 426 631 533 964 137 425 153 907
45 1361 -82 347 -255 695 -496 995 -185 231 -504 498 -730 614 l-43 21 0 -77
c0 -123 -34 -366 -65 -464 -4 -10 31 -43 114 -108 391 -302 652 -735 746
-1241 24 -123 31 -419 15 -560 -22 -194 -64 -362 -136 -542 -50 -126 -100
-219 -202 -373 -71 -107 -114 -158 -241 -286 -130 -129 -179 -170 -294 -246
-131 -88 -306 -180 -412 -218 -64 -23 -62 -21 -39 -47 l19 -23 -26 23 -26 23
-59 -20 c-162 -54 -378 -84 -599 -84 -179 1 -309 18 -488 63 -66 16 -124 27
-130 23 -5 -3 -7 -2 -4 3 3 6 -29 23 -71 38 -327 120 -650 355 -866 631 -231
294 -367 614 -422 995 -25 170 -15 468 20 643 102 501 385 946 788 1240 37 27
68 51 68 52 0 2 -9 41 -20 87 -29 127 -41 211 -49 345 l-6 123 -76 -44z m2022
-4193 c13 -16 12 -17 -3 -4 -17 13 -22 21 -14 21 2 0 10 -8 17 -17z m80 -80
c13 -16 12 -17 -3 -4 -10 7 -18 15 -18 17 0 8 8 3 21 -13z m80 -80 c13 -16 12
-17 -3 -4 -10 7 -18 15 -18 17 0 8 8 3 21 -13z m80 -80 c13 -16 12 -17 -3 -4
-10 7 -18 15 -18 17 0 8 8 3 21 -13z"/>
<path d="M5315 4323 c-621 -53 -963 -98 -1390 -182 -467 -93 -896 -247 -1121
-402 -142 -99 -244 -232 -278 -365 -19 -72 -21 -200 -5 -241 6 -15 13 -40 14
-54 1 -15 18 -55 36 -90 42 -80 189 -235 214 -226 9 4 13 3 10 -2 -11 -18 187
-137 207 -125 7 4 10 4 6 -1 -10 -10 14 -22 164 -84 550 -223 1565 -384 2703
-428 249 -10 1247 -8 1272 2 10 4 43 7 73 6 131 -5 802 47 1100 84 401 49 831
129 1100 204 269 74 580 190 611 227 6 7 15 12 19 9 12 -7 175 100 172 114 -1
7 2 10 8 6 36 -22 223 212 236 295 0 3 6 23 12 45 17 56 15 179 -3 250 -60
234 -271 416 -660 568 -483 189 -1376 348 -2195 393 l-125 6 -35 -58 c-19 -33
-69 -106 -111 -164 -94 -130 -173 -249 -168 -254 2 -2 103 -8 224 -15 873 -46
1707 -180 2216 -357 241 -84 285 -112 309 -199 11 -41 11 -54 -4 -101 -9 -29
-21 -56 -27 -60 -6 -4 -6 -12 3 -22 10 -14 10 -15 -2 -5 -10 10 -19 8 -39 -6
-67 -46 -326 -135 -580 -200 -341 -87 -716 -149 -1266 -210 -769 -86 -2052
-93 -2855 -16 -396 38 -468 46 -755 91 -462 71 -828 158 -1105 263 -154 57
-174 69 -203 114 -35 53 -42 97 -27 152 17 59 60 100 151 140 386 170 1180
325 2004 390 110 9 220 18 245 20 25 2 114 7 198 11 83 4 152 10 152 13 0 10
-93 149 -189 281 -45 63 -91 131 -102 152 l-19 38 -78 -2 c-42 -1 -95 -3 -117
-5z m3915 -548 c13 -14 21 -25 18 -25 -2 0 -15 11 -28 25 -13 14 -21 25 -18
25 2 0 15 -11 28 -25z m-5410 12 c0 -2 -12 -14 -27 -28 l-28 -24 24 28 c23 25
31 32 31 24z m5480 -82 c13 -14 21 -25 18 -25 -2 0 -15 11 -28 25 -13 14 -21
25 -18 25 2 0 15 -11 28 -25z m-5560 2 c0 -2 -12 -14 -27 -28 l-28 -24 24 28
c23 25 31 32 31 24z m5615 -57 c10 -11 16 -20 13 -20 -3 0 -13 9 -23 20 -10
11 -16 20 -13 20 3 0 13 -9 23 -20z m-5695 -23 c0 -2 -12 -14 -27 -28 l-28
-24 24 28 c23 25 31 32 31 24z m5760 -42 c13 -14 21 -25 18 -25 -2 0 -15 11
-28 25 -13 14 -21 25 -18 25 2 0 15 -11 28 -25z m-6840 -520 c13 -14 21 -25
18 -25 -2 0 -15 11 -28 25 -13 14 -21 25 -18 25 2 0 15 -11 28 -25z m520 2 c0
-2 -12 -14 -27 -28 l-28 -24 24 28 c23 25 31 32 31 24z m7360 0 c0 -2 -12 -14
-27 -28 l-28 -24 24 28 c23 25 31 32 31 24z m-434 -89 l29 -33 -32 29 c-31 28
-38 36 -30 36 2 0 16 -15 33 -32z m-7301 -58 c44 -44 77 -80 75 -80 -3 0 -41
36 -85 80 -44 44 -77 80 -75 80 3 0 41 -36 85 -80z m295 67 c0 -2 -12 -14 -27
-28 l-28 -24 24 28 c23 25 31 32 31 24z m7350 -10 c0 -2 -10 -12 -22 -23 l-23
-19 19 23 c18 21 26 27 26 19z m-270 -72 c13 -14 21 -25 18 -25 -2 0 -15 11
-28 25 -13 14 -21 25 -18 25 2 0 15 -11 28 -25z m-7160 2 c0 -2 -12 -14 -27
-28 l-28 -24 24 28 c23 25 31 32 31 24z m7360 0 c0 -2 -12 -14 -27 -28 l-28
-24 24 28 c23 25 31 32 31 24z m-100 -101 c0 -2 -8 -10 -17 -17 -16 -13 -17
-12 -4 4 13 16 21 21 21 13z m-7275 -86 c21 -22 37 -40 34 -40 -3 0 -23 18
-44 40 -21 22 -37 40 -34 40 3 0 23 -18 44 -40z m7215 26 c0 -2 -8 -10 -17
-17 -16 -13 -17 -12 -4 4 13 16 21 21 21 13z m-3379 -203 c13 -16 12 -17 -3
-4 -10 7 -18 15 -18 17 0 8 8 3 21 -13z m80 -80 c13 -16 12 -17 -3 -4 -17 13
-22 21 -14 21 2 0 10 -8 17 -17z m80 -80 c13 -16 12 -17 -3 -4 -17 13 -22 21
-14 21 2 0 10 -8 17 -17z m80 -80 c13 -16 12 -17 -3 -4 -10 7 -18 15 -18 17 0
8 8 3 21 -13z m80 -80 c13 -16 12 -17 -3 -4 -10 7 -18 15 -18 17 0 8 8 3 21
-13z"/>
</g>
</svg>
